<?xml version="1.0" encoding="UTF-8"?>
<svg id="b" data-name="Layer 2" xmlns="http://www.w3.org/2000/svg" xmlns:xlink="http://www.w3.org/1999/xlink" viewBox="0 0 4000.65 1684.66">
  <defs>
    <clipPath id="d">
      <path d="m784.41,335.63h-177.12v103.66h177.12v-103.66Zm-170.73-36.14h164.33c-4.52-11.14-11.23-21.19-19.62-29.55-11.99-12-27.36-20.61-44.52-24.19v-54.89h-36.05v54.89c-17.16,3.59-32.52,12.2-44.52,24.19-8.36,8.36-15.09,18.4-19.62,29.55Zm-88.77,73.04l-391.41,263.16-32.55-59.45,420.76-209.26,3.2,5.54Zm-2.87-106.37L101.52,57.32,134.23,0l390.72,261.12-2.89,5.05Zm344.73,106.37l391.41,263.16,32.55-59.45-420.76-209.26-3.2,5.54Zm2.88-106.37l420.54-208.85L1257.45,0l-390.72,261.12,2.93,5.05Zm6.87,55.36l515.16,34.23v-72.22l-515.16,31.17v6.81Zm-361.34,0L0,355.77v-72.22l515.18,31.17v6.81Zm314.91,327.16h-268.48l-26.18,277.2c87.61-125.71,201.68-223.83,294.66-277.2Zm34.07,360.79l-20.05-212.49c-190.95,139.5-327.63,329.64-349.7,563.35-10.21,108.14-20.41,216.21-30.62,324.32,55.28-233.65,232.08-517.97,400.38-675.18Zm-293.04-443.16v-90.87h-71.09v137.07h391.62v-137.07h-71.09v90.87h-36.16v-90.87h-70.48v90.87h-36.16v-90.87h-70.48v90.87h-36.16Z" fill="#a41c30" stroke-width="0"/>
    </clipPath>
  </defs>
  <g id="c" data-name="Layer 1">
    <g>
      <path d="m784.41,335.63h-177.12v103.66h177.12v-103.66Zm-170.73-36.14h164.33c-4.52-11.14-11.23-21.19-19.62-29.55-11.99-12-27.36-20.61-44.52-24.19v-54.89h-36.05v54.89c-17.16,3.59-32.52,12.2-44.52,24.19-8.36,8.36-15.09,18.4-19.62,29.55Zm-88.77,73.04l-391.41,263.16-32.55-59.45,420.76-209.26,3.2,5.54Zm-2.87-106.37L101.52,57.32,134.23,0l390.72,261.12-2.89,5.05Zm344.73,106.37l391.41,263.16,32.55-59.45-420.76-209.26-3.2,5.54Zm2.88-106.37l420.54-208.85L1257.45,0l-390.72,261.12,2.93,5.05Zm6.87,55.36l515.16,34.23v-72.22l-515.16,31.17v6.81Zm-361.34,0L0,355.77v-72.22l515.18,31.17v6.81Zm314.91,327.16h-268.48l-26.18,277.2c87.61-125.71,201.68-223.83,294.66-277.2Zm34.07,360.79l-20.05-212.49c-190.95,139.5-327.63,329.64-349.7,563.35-10.21,108.14-20.41,216.21-30.62,324.32,55.28-233.65,232.08-517.97,400.38-675.18Zm-293.04-443.16v-90.87h-71.09v137.07h391.62v-137.07h-71.09v90.87h-36.16v-90.87h-70.48v90.87h-36.16v-90.87h-70.48v90.87h-36.16Z" fill="#a41c30"/>
      <g clip-path="url(#d)">
        <rect width="1391.68" height="1684.66" fill="#a41c30" stroke-width="0"/>
      </g>
    </g>
    <path d="m3998.47,760.47h-225.52v304.73h227.7v-48.33h-174.59v-81.4h152.83v-48.33h-152.83v-78.34h172.41v-48.33Zm-459.3,79.67c0-10.15,4.36-18.79,13.07-25.9,8.72-7.12,20.88-10.68,36.55-10.68,13.93,0,27.72,2.7,41.38,8.05,13.63,5.38,27.42,13.13,41.35,23.28l28.74-40.47c-15.66-12.47-32.44-21.98-50.29-28.52-17.84-6.54-37.95-9.79-60.3-9.79-15.09,0-29.02,2.12-41.71,6.32-12.77,4.22-23.66,10.23-32.74,18.07-9.05,7.84-16.16,17.19-21.38,28.08-5.16,10.87-7.77,23.01-7.77,36.36,0,14.2,2.26,26.26,6.76,36.14,4.49,9.85,11.09,18.26,19.66,25.24,8.55,6.95,19.2,12.77,31.84,17.41,12.69,4.64,27.14,8.86,43.48,12.64,14.2,3.47,25.73,6.81,34.67,10.01,8.86,3.2,15.8,6.59,20.97,10.23,5.07,3.61,8.58,7.61,10.45,11.97,1.88,4.33,2.84,9.27,2.84,14.79,0,11.89-4.88,21.32-14.59,28.3-9.74,6.95-22.87,10.46-39.42,10.46-19.15,0-36.25-3.42-51.37-10.23-15.09-6.81-30.04-16.63-44.82-29.41l-32.22,38.32c18.29,16.55,38.17,28.8,59.63,36.8,21.49,7.97,43.98,11.97,67.48,11.97,15.97,0,30.62-2.04,43.97-6.09,13.3-4.06,24.75-10.02,34.18-17.85,9.49-7.84,16.91-17.41,22.27-28.75,5.3-11.31,8-24.22,8-38.73,0-12.77-2.12-23.89-6.32-33.29-4.22-9.44-10.45-17.74-18.56-24.83-8.14-7.12-18.46-13.13-30.79-18.07-12.33-4.94-26.54-9.43-42.51-13.49-14.59-3.5-26.56-6.84-36.05-10.01-9.44-3.2-16.83-6.68-22.29-10.46-5.35-3.78-9.05-7.83-11.09-12.19-2.05-4.36-3.06-9.57-3.06-15.67Zm-118.4-79.67h-53.1v175.45c0,28.14-6.9,49.35-20.63,63.55-13.71,14.23-32.5,21.32-56.44,21.32s-43.17-7.39-56.88-22.21c-13.71-14.79-20.61-36.41-20.61-64.85v-173.27h-53.1v175.45c0,22.07,3.04,41.43,9.13,58.12,6.09,16.69,14.81,30.68,26.12,42.01,11.3,11.31,24.96,19.8,40.91,25.46,15.97,5.66,33.82,8.47,53.57,8.47s38.09-2.81,54.18-8.47c16.11-5.66,29.82-14.23,41.16-25.68,11.31-11.48,20.08-25.77,26.34-42.9,6.23-17.1,9.35-36.99,9.35-59.64v-172.82Zm-377.01,152.8c0,14.81-2.54,28.8-7.62,42.01-5.07,13.21-12.11,24.66-21.12,34.4-8.99,9.71-19.81,17.41-32.41,23.06-12.63,5.68-26.48,8.5-41.6,8.5s-28.99-2.9-41.77-8.72c-12.77-5.79-23.75-13.62-32.88-23.5-9.12-9.85-16.24-21.41-21.32-34.59-5.08-13.21-7.64-27.23-7.64-42.01s2.56-28.8,7.64-42.01c5.08-13.21,12.11-24.66,21.1-34.4,8.99-9.71,19.8-17.41,32.45-23.06,12.6-5.68,26.48-8.5,41.57-8.5s29.02,2.89,41.79,8.71c12.77,5.79,23.73,13.63,32.88,23.5,9.13,9.85,16.25,21.41,21.32,34.59,5.08,13.21,7.62,27.23,7.62,42.01Zm56.16-.86c0-21.49-3.92-41.79-11.75-60.96-7.84-19.14-18.73-35.83-32.66-50.07-13.93-14.21-30.62-25.46-50.07-33.74-19.45-8.27-40.91-12.38-64.44-12.38s-44.96,4.19-64.41,12.61c-19.45,8.41-36.27,19.83-50.51,34.18-14.2,14.38-25.23,31.12-33.07,50.29-7.84,19.14-11.75,39.48-11.75,60.94s3.91,41.79,11.75,60.96c7.84,19.14,18.7,35.84,32.63,50.07,13.96,14.21,30.62,25.46,50.06,33.73,19.45,8.28,40.94,12.39,64.45,12.39s44.99-4.19,64.44-12.61c19.45-8.41,36.27-19.84,50.48-34.18,14.23-14.37,25.27-31.12,33.1-50.29,7.83-19.14,11.75-39.47,11.75-60.93Zm-436.65,24.36v128.44h53.1v-304.73h-53.1v126.67h-146.29v-126.67h-53.1v304.73h53.1v-128.44h146.29Zm-262.09-155.83v-20.47h-235.05v20.47h106.2v284.27h22.64v-284.27h106.21Zm-303.86,284.27v-304.73h-22.62v141.48h-195.05v-141.48h-22.62v304.73h22.62v-142.81h195.05v142.81h22.62Zm-322.14-40.33v-117.27h-123.63v20.47h101.87v87.23c-5.52,4.55-11.91,8.99-19.17,13.18-7.25,4.22-15,7.92-23.28,11.12-8.27,3.12-17.05,5.66-26.34,7.53-9.27,1.9-18.73,2.84-28.3,2.84-20.3,0-38.52-3.5-54.62-10.45-16.11-6.98-29.82-16.47-41.16-28.66-11.3-12.2-19.95-26.7-25.9-43.45-5.93-16.86-8.91-35.06-8.91-54.79v-.88c0-18.29,3.04-35.64,9.13-52.16,6.09-16.46,14.73-30.98,25.9-43.47,11.2-12.47,24.47-22.26,39.84-29.52,15.39-7.25,32.36-10.9,50.95-10.9,22.92,0,42.01,3.48,57.23,10.46,15.26,6.98,28.8,15.67,40.72,26.12l14.79-16.99c-7.53-6.37-15.31-12.03-23.29-16.96-7.99-4.94-16.41-9.13-25.23-12.63-8.86-3.48-18.43-6.1-28.75-7.84-10.31-1.74-21.68-2.59-34.17-2.59-22.62,0-43.26,4.33-61.82,13.05-18.56,8.71-34.45,20.3-47.67,34.81-13.21,14.54-23.36,31.28-30.48,50.32-7.09,19-10.65,38.81-10.65,59.42v.86c0,21.49,3.48,41.73,10.45,60.74,6.95,19.01,16.97,35.61,30.04,49.85,13.05,14.21,29.08,25.46,48.09,33.73,19.03,8.28,40.58,12.39,64.66,12.39s47.67-4.55,68.13-13.62c20.45-9.13,37.66-19.81,51.59-31.92Zm-353.06,40.33v-304.73h-22.65v304.73h22.65Zm-93.59,0v-20.46h-178.92v-284.27h-22.65v304.73h201.57Z" fill="#a41c30" stroke-width="0"/>
  </g>
</svg>