<?xml version="1.0" encoding="UTF-8"?>
<svg id="b" data-name="Layer 2" xmlns="http://www.w3.org/2000/svg" xmlns:xlink="http://www.w3.org/1999/xlink" viewBox="0 0 1391.68 1684.66">
  <defs>
    <clipPath id="d">
      <path d="m784.41,335.63h-177.12v103.66h177.12v-103.66Zm-170.73-36.14h164.33c-4.52-11.14-11.23-21.19-19.62-29.55-11.99-12-27.36-20.61-44.52-24.19v-54.89h-36.05v54.89c-17.16,3.59-32.52,12.2-44.52,24.19-8.36,8.36-15.09,18.4-19.62,29.55Zm-88.77,73.04l-391.41,263.16-32.55-59.45,420.76-209.26,3.2,5.54Zm-2.87-106.37L101.52,57.32,134.23,0l390.72,261.12-2.89,5.05Zm344.73,106.37l391.41,263.16,32.55-59.45-420.76-209.26-3.2,5.54Zm2.88-106.37l420.54-208.85L1257.45,0l-390.72,261.12,2.93,5.05Zm6.87,55.36l515.16,34.23v-72.22l-515.16,31.17v6.81Zm-361.34,0L0,355.77v-72.22l515.18,31.17v6.81Zm314.91,327.16h-268.48l-26.18,277.2c87.61-125.71,201.68-223.83,294.66-277.2Zm34.07,360.79l-20.05-212.49c-190.95,139.5-327.63,329.64-349.7,563.35-10.21,108.14-20.41,216.21-30.62,324.32,55.28-233.65,232.08-517.97,400.38-675.18Zm-293.04-443.16v-90.87h-71.09v137.07h391.62v-137.07h-71.09v90.87h-36.16v-90.87h-70.48v90.87h-36.16v-90.87h-70.48v90.87h-36.16Z" fill="#a41c30" stroke-width="0"/>
    </clipPath>
  </defs>
  <g id="c" data-name="Layer 1">
    <g>
      <path d="m784.41,335.63h-177.12v103.66h177.12v-103.66Zm-170.73-36.14h164.33c-4.52-11.14-11.23-21.19-19.62-29.55-11.99-12-27.36-20.61-44.52-24.19v-54.89h-36.05v54.89c-17.16,3.59-32.52,12.2-44.52,24.19-8.36,8.36-15.09,18.4-19.62,29.55Zm-88.77,73.04l-391.41,263.16-32.55-59.45,420.76-209.26,3.2,5.54Zm-2.87-106.37L101.52,57.32,134.23,0l390.72,261.12-2.89,5.05Zm344.73,106.37l391.41,263.16,32.55-59.45-420.76-209.26-3.2,5.54Zm2.88-106.37l420.54-208.85L1257.45,0l-390.72,261.12,2.93,5.05Zm6.87,55.36l515.16,34.23v-72.22l-515.16,31.17v6.81Zm-361.34,0L0,355.77v-72.22l515.18,31.17v6.81Zm314.91,327.16h-268.48l-26.18,277.2c87.61-125.71,201.68-223.83,294.66-277.2Zm34.07,360.79l-20.05-212.49c-190.95,139.5-327.63,329.64-349.7,563.35-10.21,108.14-20.41,216.21-30.62,324.32,55.28-233.65,232.08-517.97,400.38-675.18Zm-293.04-443.16v-90.87h-71.09v137.07h391.62v-137.07h-71.09v90.87h-36.16v-90.87h-70.48v90.87h-36.16v-90.87h-70.48v90.87h-36.16Z" fill="#a41c30"/>
      <g clip-path="url(#d)">
        <rect width="1391.68" height="1684.66" fill="#a41c30" stroke-width="0"/>
      </g>
    </g>
  </g>
</svg>