<svg width="0" height="0" class="hidden">
  <symbol id="facebook" xmlns="http://www.w3.org/2000/svg" viewBox="0 0 36 36">
     <path d="M32 0H4C1.79 0 0 1.79 0 4v28c0 2.21 1.79 4 4 4h15.24V22.08h-4.69v-5.45h4.69v-4.01c0-4.65 2.84-7.18 6.99-7.18 1.4 0 2.79.07 4.18.21v4.86h-2.86c-2.26 0-2.7 1.07-2.7 2.64v3.47h5.4l-.7 5.45h-4.73V36h7.17c2.21 0 4-1.79 4-4V4c0-2.21-1.79-4-4-4Z" fill="currentColor" strokewidth="0"/>
  </symbol>
  <symbol id="instagram" xmlns="http://www.w3.org/2000/svg" viewBox="0 0 36 36">
     <path d="M10 0C4.48 0 0 4.48 0 10v16c0 5.52 4.48 10 10 10h16c5.52 0 10-4.48 10-10V10c0-5.52-4.48-10-10-10H10Zm20 4c1.1 0 2 .9 2 2s-.9 2-2 2-2-.9-2-2 .9-2 2-2ZM18 8c5.52 0 10 4.48 10 10s-4.48 10-10 10S8 23.52 8 18 12.48 8 18 8Zm0 4c-3.31 0-6 2.69-6 6s2.69 6 6 6 6-2.69 6-6-2.69-6-6-6Z" fill="currentColor" strokeWidth="0"/>
  </symbol>
  <symbol id="linkedin" xmlns="http://www.w3.org/2000/svg" viewBox="0 0 36 36">
    <path d="M32 0H4C1.79 0 0 1.79 0 4v28c0 2.21 1.79 4 4 4h28c2.21 0 4-1.79 4-4V4c0-2.21-1.79-4-4-4ZM12 28H6.95V14H12v14ZM9.39 11.43c-1.54 0-2.57-1.03-2.57-2.4s1.03-2.4 2.74-2.4c1.54 0 2.57 1.03 2.57 2.4s-1.03 2.4-2.74 2.4ZM30 28h-4.88v-7.65c0-2.12-1.3-2.6-1.79-2.6s-2.12.33-2.12 2.6V28h-5.05V14h5.05v1.95c.65-1.14 1.95-1.95 4.39-1.95s4.4 1.95 4.4 6.35V28Z" fill="currentColor" strokeWidth="0"/>
  </symbol>
  <symbol id="twitter-x" xmlns="http://www.w3.org/2000/svg" viewBox="0 0 36 36">
    <path d="m14.11 9.98 11.26 16.05h-2.99L11.13 9.98h2.97ZM36 6v24c0 3.31-2.69 6-6 6H6c-3.31 0-6-2.69-6-6V6c0-3.31 2.69-6 6-6h24c3.31 0 6 2.69 6 6Zm-6.92 22-8.37-11.98L27.55 8h-2.62l-5.41 6.32L15.11 8h-7.7l7.88 11.27L7.82 28h2.67l6-7.03L21.41 28h7.68Z" fill="currentColor" strokeWidth="0"/>
  </symbol>
</svg>