<?xml version="1.0" standalone="no"?>
<!DOCTYPE svg PUBLIC "-//W3C//DTD SVG 20010904//EN"
 "http://www.w3.org/TR/2001/REC-SVG-20010904/DTD/svg10.dtd">
<svg version="1.0" xmlns="http://www.w3.org/2000/svg"
 width="1685.000000pt" height="1685.000000pt" viewBox="0 0 1685.000000 1685.000000"
 preserveAspectRatio="xMidYMid meet">
<metadata>
Created by potrace 1.14, written by Peter Selinger 2001-2017
</metadata>
<g transform="translate(0.000000,1685.000000) scale(0.100000,-0.100000)"
fill="#000000" stroke="none">
<path d="M2786 16825 c-9 -13 -16 -27 -16 -31 0 -3 -8 -18 -19 -32 -10 -15
-34 -56 -54 -92 -20 -36 -78 -139 -130 -229 l-93 -164 450 -225 c248 -123 703
-349 1011 -502 308 -153 1010 -501 1560 -775 1332 -662 1183 -591 1200 -569 8
11 13 23 11 29 -1 5 -232 163 -512 350 -775 519 -3367 2251 -3380 2258 -7 4
-19 -4 -28 -18z"/>
<path d="M12744 15988 c-709 -474 -1586 -1060 -1948 -1303 -363 -242 -661
-445 -662 -450 -2 -6 3 -19 11 -29 14 -19 18 -18 122 34 60 29 468 232 908
451 440 218 1196 593 1680 834 484 240 1021 507 1193 592 171 85 312 160 312
166 0 7 -11 29 -25 49 -14 20 -25 39 -25 41 0 6 -260 461 -269 470 -4 4 -587
-381 -1297 -855z"/>
<path d="M8263 14942 l-23 -3 0 -273 0 -273 -51 -11 c-133 -31 -304 -136 -417
-258 -70 -74 -156 -203 -169 -252 -5 -19 11 -19 816 -19 l822 0 -7 21 c-33
107 -175 283 -300 372 -72 51 -208 117 -281 135 l-53 13 0 273 c0 211 -3 273
-12 274 -56 2 -308 3 -325 1z"/>
<path d="M1460 13653 l0 -365 88 6 c48 4 114 9 147 11 33 3 101 7 150 10 50 3
117 7 150 10 33 2 101 7 150 10 50 3 117 7 150 10 33 2 101 7 150 10 50 3 117
8 150 10 33 2 101 7 150 10 50 3 117 8 150 10 33 3 105 7 160 10 55 4 125 8
155 10 30 3 96 7 145 10 50 3 115 7 145 10 30 3 100 7 155 11 55 3 125 7 155
9 30 2 96 7 145 10 50 3 115 8 145 10 30 3 100 7 155 10 55 3 120 8 145 10 25
3 92 7 150 10 58 3 125 8 150 10 25 3 92 7 150 10 58 3 130 8 160 10 30 2 98
6 150 10 52 3 115 8 140 10 25 3 92 7 150 10 58 3 125 8 150 10 25 2 95 6 155
10 61 3 126 8 145 10 19 2 87 7 150 11 63 3 135 7 160 9 25 2 99 6 165 11 66
4 129 8 140 9 11 1 38 3 60 4 39 1 41 2 41 36 0 42 -1 42 -181 50 -71 3 -146
8 -165 10 -19 2 -93 7 -165 10 -71 3 -146 8 -165 10 -19 2 -89 7 -155 10 -66
4 -142 8 -170 10 -27 2 -104 6 -170 10 -66 3 -140 8 -165 10 -25 2 -97 7 -160
10 -63 3 -144 8 -180 10 -66 5 -150 10 -320 20 -52 3 -124 7 -160 10 -36 3
-110 7 -165 10 -153 8 -264 15 -330 20 -33 2 -109 7 -170 10 -60 3 -139 8
-175 10 -36 3 -105 7 -155 10 -198 11 -263 15 -330 20 -38 3 -108 7 -155 10
-198 11 -289 16 -345 20 -58 4 -140 9 -330 20 -197 12 -416 25 -490 30 -33 2
-116 7 -185 11 -69 3 -135 8 -147 9 l-23 2 0 -364z"/>
<path d="M15338 14015 c-2 -2 -61 -6 -133 -10 -71 -4 -146 -8 -165 -10 -19 -2
-98 -6 -175 -10 -77 -3 -151 -8 -165 -10 -14 -2 -83 -7 -155 -10 -71 -3 -150
-8 -175 -10 -25 -2 -101 -7 -170 -10 -69 -3 -145 -8 -170 -10 -25 -2 -92 -7
-150 -10 -58 -3 -134 -8 -170 -10 -36 -3 -108 -7 -160 -10 -116 -7 -294 -18
-480 -30 -47 -3 -128 -7 -180 -10 -52 -3 -126 -7 -165 -10 -38 -2 -115 -7
-170 -10 -55 -3 -129 -8 -165 -10 -36 -3 -108 -7 -160 -10 -216 -13 -258 -15
-320 -20 -36 -2 -117 -7 -180 -10 -63 -3 -140 -8 -170 -10 -30 -2 -104 -7
-165 -10 -60 -4 -132 -8 -160 -10 -27 -2 -99 -7 -160 -10 -60 -3 -135 -8 -165
-10 -30 -2 -109 -7 -175 -10 -66 -4 -136 -8 -155 -10 -19 -2 -100 -6 -180 -10
-169 -8 -163 -7 -172 -19 -5 -8 -1 -56 5 -62 1 -1 52 -5 112 -8 61 -4 130 -9
155 -11 25 -2 90 -7 145 -10 55 -3 123 -8 150 -10 28 -2 95 -7 150 -10 55 -3
127 -8 160 -10 66 -5 164 -12 295 -20 47 -3 112 -8 145 -10 33 -2 101 -7 150
-10 50 -3 117 -7 150 -10 33 -2 101 -7 150 -10 50 -3 117 -8 150 -10 127 -9
213 -15 300 -20 50 -3 119 -8 155 -10 36 -3 106 -7 155 -10 50 -3 115 -7 145
-10 30 -2 91 -7 135 -9 117 -8 241 -16 315 -21 36 -3 108 -7 160 -10 52 -3
118 -7 145 -10 28 -3 95 -7 150 -10 55 -3 127 -7 160 -10 33 -2 101 -7 150
-10 50 -3 117 -8 150 -10 128 -10 204 -15 295 -20 97 -6 193 -12 290 -20 30
-2 98 -7 150 -10 52 -3 124 -8 160 -10 36 -3 100 -7 143 -10 l77 -6 -2 362
c-3 330 -4 362 -20 365 -9 1 -18 1 -20 -1z"/>
<path d="M7534 13486 c-2 -6 -3 -240 -2 -521 l3 -510 885 0 885 0 0 520 0 520
-884 1 c-610 0 -884 -3 -887 -10z"/>
<path d="M6285 12987 c-373 -187 -2441 -1216 -3352 -1669 -255 -126 -463 -231
-463 -232 0 -3 89 -167 171 -316 14 -25 54 -98 89 -162 38 -71 67 -115 74
-111 11 6 615 411 1026 688 124 83 385 259 580 390 195 131 450 302 565 380
116 78 397 267 625 420 850 571 1056 711 1084 731 28 20 28 21 11 47 -9 15
-20 27 -24 26 -3 -1 -177 -87 -386 -192z"/>
<path d="M10152 13167 c-30 -40 -27 -43 216 -206 130 -87 392 -263 582 -391
190 -127 489 -328 665 -447 176 -118 462 -310 635 -426 1222 -823 1773 -1193
1787 -1200 6 -4 20 10 33 36 40 75 152 282 160 292 4 6 31 55 60 110 29 55 59
109 67 120 7 11 13 23 13 27 0 5 -289 152 -642 327 -731 362 -2567 1275 -3128
1555 -443 221 -436 218 -448 203z"/>
<path d="M6460 11409 l0 -689 1960 0 1960 0 0 689 0 689 -357 -2 -358 -1 0
-452 0 -453 -65 -1 c-71 0 -219 0 -262 0 l-28 1 -2 453 -3 452 -352 1 -353 0
0 -453 0 -453 -22 0 c-51 -1 -304 -1 -320 -1 -17 1 -18 29 -18 455 l0 453
-352 -1 -353 -1 -3 -452 -2 -453 -35 -1 c-19 0 -87 0 -150 0 -63 0 -127 0
-143 0 l-27 1 0 453 0 452 -358 1 -357 1 0 -688z"/>
<path d="M7090 10360 c-12 -3 -20 -9 -19 -15 1 -5 -2 -44 -5 -85 -6 -70 -9
-99 -21 -217 -10 -107 -25 -272 -31 -328 -3 -33 -7 -78 -9 -100 -2 -22 -7 -71
-10 -110 -3 -38 -8 -86 -10 -105 -2 -19 -7 -64 -10 -100 -3 -36 -8 -85 -10
-110 -5 -44 -30 -307 -40 -425 -3 -33 -8 -76 -10 -95 -2 -19 -7 -71 -10 -115
-4 -44 -8 -91 -10 -105 -2 -14 -6 -56 -9 -95 -4 -38 -9 -90 -11 -115 -3 -25
-12 -121 -20 -215 -9 -93 -17 -183 -20 -200 -2 -16 -7 -70 -10 -120 -4 -49
-10 -94 -13 -99 -2 -5 0 -7 6 -5 5 2 61 74 122 158 426 588 986 1195 1555
1685 391 338 793 633 1154 848 63 37 113 68 110 69 -16 4 -2652 3 -2669 -1z"/>
<path d="M9850 8843 c-433 -329 -710 -562 -1004 -843 -235 -226 -445 -445
-591 -615 -33 -38 -65 -74 -71 -80 -55 -52 -324 -398 -485 -625 -569 -803
-973 -1709 -1169 -2620 -29 -136 -74 -386 -85 -470 -3 -25 -8 -56 -10 -70 -2
-14 -7 -50 -10 -80 -3 -30 -8 -66 -10 -80 -2 -14 -7 -59 -10 -100 -3 -41 -8
-91 -10 -110 -2 -19 -7 -64 -10 -100 -3 -36 -8 -81 -10 -100 -2 -19 -7 -71
-10 -115 -4 -44 -8 -93 -10 -110 -2 -16 -7 -61 -10 -100 -3 -38 -8 -88 -10
-110 -3 -22 -7 -67 -10 -100 -3 -33 -14 -154 -25 -270 -11 -115 -27 -282 -35
-370 -17 -172 -23 -234 -30 -305 -2 -25 -7 -74 -10 -110 -3 -36 -8 -81 -10
-100 -2 -19 -7 -73 -10 -120 -4 -47 -8 -92 -10 -100 -2 -8 -6 -55 -10 -105 -3
-49 -8 -101 -10 -115 -2 -14 -7 -59 -10 -100 -3 -41 -8 -91 -10 -110 -2 -19
-7 -64 -10 -100 -3 -36 -8 -85 -10 -110 -2 -25 -7 -72 -10 -105 -3 -33 -10
-105 -15 -159 -6 -55 -8 -101 -6 -103 2 -2 9 20 16 49 7 29 37 139 66 243 130
469 310 969 528 1473 63 145 85 195 143 322 83 180 356 722 457 905 18 33 48
87 66 120 238 436 655 1103 961 1535 41 58 90 127 109 154 48 67 335 450 379
506 20 24 43 54 52 65 9 11 56 69 104 129 49 60 96 119 106 130 9 12 34 41 54
66 200 243 452 518 734 800 124 124 225 227 224 230 0 3 -4 43 -7 90 -4 47 -8
99 -10 115 -2 17 -7 64 -10 105 -4 41 -9 91 -11 110 -2 19 -7 67 -10 105 -3
39 -10 113 -15 165 -13 129 -19 194 -25 265 -3 33 -7 80 -10 105 -3 25 -7 72
-10 105 -3 33 -8 78 -10 100 -2 22 -7 72 -10 110 -3 39 -8 90 -10 115 -8 82
-14 144 -25 260 -6 63 -13 133 -15 155 -2 22 -7 74 -11 115 -3 41 -9 80 -13
86 -4 7 -23 -2 -51 -23z"/>
</g>
</svg>
